<svg width="140" height="56" viewBox="0 0 140 56" fill="none" xmlns="http://www.w3.org/2000/svg">
<path d="M11 18.0119V23.3262L40.3764 40.6453L45 38.1305V32.5789L15.4368 15.3547L11 18.0119Z" fill="#4271EB"/>
<path d="M11 38.1305V28.4508L36.1731 43.2076L27.9533 48L11 38.1305Z" fill="#4271EB"/>
<path d="M27.9533 8L19.9203 12.8399L45 27.5492V18.0119L27.9533 8Z" fill="#4271EB"/>
<path d="M61.32 33.624V26.424L63.672 24.048H69.984L72.36 26.448V28.416H69.648V27.312L68.688 26.376H64.992L64.032 27.312V32.736L64.992 33.672H68.688L69.648 32.736V31.632H72.36V33.6L69.984 36H63.672L61.32 33.624ZM74.6353 33.576V24.048H77.3473V32.736L78.2833 33.672H80.3713L82.9153 31.128V24.048H85.6273V36H83.1073V33.792L80.8753 36H77.0593L74.6353 33.576ZM88.7475 33.528V18.864H91.4595V25.92L93.4035 24.048H97.6995L100.1 26.448V33.6L97.6995 36H91.1955L88.7475 33.528ZM96.3795 33.672L97.3875 32.664V27.384L96.3795 26.376H93.8355L91.4595 28.752V32.664L92.4675 33.672H96.3795ZM102.734 33.624V26.448L105.11 24.048H111.614L114.038 26.448V30.912H105.446V32.832L106.358 33.744H110.462L111.326 32.856V32.136H114.014V33.672L111.686 36H105.086L102.734 33.624ZM111.326 28.92V27.264L110.39 26.304H106.382L105.446 27.264V28.92H111.326ZM116.202 33.768V32.304H118.866V33.072L119.538 33.768H123.618L124.29 33.072V31.776L123.594 31.08H118.434L116.298 28.92V26.232L118.482 24.048H124.506L126.714 26.28V27.744H124.05V26.976L123.378 26.28H119.634L118.962 26.976V28.176L119.658 28.872H124.794L126.954 31.056V33.816L124.77 36H118.41L116.202 33.768Z" fill="white"/>
</svg>
