<svg width="32" height="32" viewBox="0 0 32 32" fill="none" xmlns="http://www.w3.org/2000/svg">
<path d="M4 9.06985V11.9291C4 12.28 4.18393 12.6053 4.48465 12.7861L25.1051 25.1862C25.4115 25.3704 25.7929 25.3771 26.1056 25.2037L28.4851 23.8835C28.8029 23.7072 29 23.3724 29 23.0091V20.0031C29 19.6504 28.8141 19.3237 28.5109 19.1435L7.78034 6.82384C7.46171 6.63448 7.06447 6.6369 6.74817 6.83012L4.4787 8.21647C4.18136 8.39811 4 8.72142 4 9.06985Z" fill="#45459F"/>
<path d="M4 23.0287V18.1011C4 17.3245 4.84665 16.8443 5.5132 17.2429L21.0703 26.5451C21.7203 26.9337 21.7192 27.8758 21.0683 28.2629L16.9764 30.6963C16.6616 30.8835 16.2696 30.8836 15.9547 30.6966L4.48943 23.8885C4.186 23.7083 4 23.3815 4 23.0287Z" fill="#45459F"/>
<path d="M15.9487 1.3177L11.9641 3.76642C11.3244 4.15953 11.33 5.0911 11.9743 5.47655L27.4866 14.7566C28.1532 15.1553 29 14.6751 29 13.8984V9.07554C29 8.72403 28.8154 8.39834 28.5139 8.2177L16.9862 1.31183C16.6663 1.1202 16.2664 1.12246 15.9487 1.3177Z" fill="#45459F"/>
</svg>
